<svg height="415pt" viewBox="0 -1 415.17749 415" width="415pt" xmlns="http://www.w3.org/2000/svg"><path d="m140.304688 369.066406c-3.191407-2.597656-6.320313-5.386718-9.289063-8.277344-2.699219-2.625-7.019531-2.574218-9.652344.132813-2.628906 2.699219-2.570312 7.023437.132813 9.652344 3.257812 3.171875 6.683594 6.222656 10.191406 9.078125 1.265625 1.03125 2.789062 1.53125 4.304688 1.53125 1.980468 0 3.945312-.859375 5.296874-2.515625 2.378907-2.921875 1.941407-7.222657-.984374-9.601563zm0 0"/><path d="m227.816406 233.617188c-14.976562 0-27.164062 12.183593-27.164062 27.164062s12.1875 27.167969 27.164062 27.167969c14.980469 0 27.167969-12.1875 27.167969-27.167969s-12.183594-27.164062-27.167969-27.164062zm0 40.679687c-7.449218 0-13.511718-6.066406-13.511718-13.515625s6.0625-13.511719 13.511718-13.511719c7.449219 0 13.515625 6.0625 13.515625 13.511719s-6.0625 13.515625-13.515625 13.515625zm0 0"/><path d="m363.554688 54.703125c3.769531 0 6.828124-3.058594 6.828124-6.828125v-20.480469c0-3.769531-3.058593-6.824219-6.828124-6.824219-3.769532 0-6.824219 3.054688-6.824219 6.824219v20.480469c0 3.769531 3.054687 6.828125 6.824219 6.828125zm0 0"/><path d="m363.554688 68.355469c-3.769532 0-6.824219 3.054687-6.824219 6.828125v20.476562c0 3.773438 3.054687 6.828125 6.824219 6.828125 3.769531 0 6.828124-3.054687 6.828124-6.828125v-20.476562c0-3.773438-3.058593-6.828125-6.828124-6.828125zm0 0"/><path d="m329.421875 68.355469h20.480469c3.769531 0 6.828125-3.058594 6.828125-6.828125 0-3.769532-3.058594-6.824219-6.828125-6.824219h-20.480469c-3.769531 0-6.824219 3.054687-6.824219 6.824219 0 3.769531 3.054688 6.828125 6.824219 6.828125zm0 0"/><path d="m377.210938 68.355469h20.476562c3.773438 0 6.828125-3.058594 6.828125-6.828125 0-3.769532-3.054687-6.824219-6.828125-6.824219h-20.476562c-3.773438 0-6.828126 3.054687-6.828126 6.824219 0 3.769531 3.054688 6.828125 6.828126 6.828125zm0 0"/><path d="m14.960938 168.261719c-5.382813 1.628906-9.808594 5.257812-12.460938 10.21875-2.65625 4.957031-3.214844 10.65625-1.585938 16.035156 1.628907 5.382813 5.261719 9.808594 10.21875 12.464844 3.101563 1.65625 6.488282 2.5 9.90625 2.5 2.050782 0 4.117188-.304688 6.136719-.917969 11.109375-3.371094 17.410157-15.148438 14.042969-26.261719-3.371094-11.109375-15.160156-17.410156-26.257812-14.039062zm8.253906 27.234375c-1.886719.574218-3.898438.378906-5.640625-.554688-1.742188-.933594-3.019531-2.488281-3.589844-4.378906-.574219-1.894531-.378906-3.898438.554687-5.640625.933594-1.746094 2.488282-3.023437 4.378907-3.59375.714843-.214844 1.433593-.320313 2.144531-.320313 3.175781 0 6.121094 2.0625 7.089844 5.257813 1.183594 3.902344-1.03125 8.046875-4.9375 9.230469zm0 0"/><path d="m34.554688.0898438c-11.609376 0-21.054688 9.4453122-21.054688 21.0546872 0 11.613281 9.445312 21.058594 21.054688 21.058594 11.609374 0 21.058593-9.445313 21.058593-21.058594 0-11.609375-9.449219-21.0546872-21.058593-21.0546872zm0 28.4609372c-4.082032 0-7.402344-3.320312-7.402344-7.40625 0-4.082031 3.320312-7.402343 7.402344-7.402343 4.085937 0 7.402343 3.320312 7.402343 7.402343 0 4.085938-3.316406 7.40625-7.402343 7.40625zm0 0"/><path d="m87.414062 91.824219c1.335938 1.335937 3.082032 2 4.828126 2 1.746093 0 3.492187-.664063 4.828124-2l5.234376-5.234375 5.234374 5.234375c1.335938 1.335937 3.082032 2 4.828126 2 1.746093 0 3.492187-.664063 4.828124-2 2.664063-2.664063 2.664063-6.984375 0-9.652344l-5.238281-5.234375 5.238281-5.238281c2.664063-2.664063 2.664063-6.984375 0-9.652344-2.667968-2.664063-6.988281-2.664063-9.65625 0l-5.234374 5.238281-5.234376-5.238281c-2.667968-2.664063-6.988281-2.664063-9.65625 0-2.664062 2.667969-2.664062 6.988281 0 9.652344l5.238282 5.238281-5.238282 5.234375c-2.664062 2.667969-2.664062 6.988281 0 9.652344zm0 0"/><path d="m212.644531 44.554688c6.289063 0 11.386719-5.097657 11.386719-11.382813 0-6.289063-5.097656-11.386719-11.386719-11.386719-6.285156 0-11.382812 5.097656-11.382812 11.386719 0 6.285156 5.097656 11.382813 11.382812 11.382813zm0 0"/><path d="m403.792969 165.144531c-6.289063 0-11.386719 5.097657-11.386719 11.386719 0 6.285156 5.097656 11.382812 11.386719 11.382812 6.285156 0 11.382812-5.097656 11.382812-11.382812 0-6.289062-5.097656-11.386719-11.382812-11.386719zm0 0"/><path d="m361.933594 167.34375c-.867188-8.175781-4.828125-15.339844-11.164063-20.1875-6.328125-4.839844-14.269531-6.800781-22.394531-5.496094-.457031.074219-.902344.199219-1.355469.292969-27.648437-23.746094-62.804687-36.824219-99.203125-36.824219-36.566406 0-71.800781 13.175782-99.507812 37.101563-.875-.21875-1.75-.425781-2.640625-.570313-8.128907-1.316406-16.070313.652344-22.398438 5.5-6.332031 4.84375-10.292969 12.007813-11.160156 20.183594-.582031 5.464844.304687 11.015625 2.46875 16.109375-12.984375 23.082031-19.851563 49.347656-19.851563 76.050781 0 31.667969 9.441407 62.109375 27.304688 88.019532 1.324219 1.921874 3.457031 2.949218 5.628906 2.949218 1.335938 0 2.683594-.390625 3.867188-1.203125 3.105468-2.140625 3.882812-6.390625 1.746094-9.496093-15-21.753907-23.484376-47.019532-24.734376-73.445313h86.015626c2.785156 26.929687 25.609374 48.003906 53.265624 48.003906s50.480469-21.074219 53.265626-48.003906h86.015624c-3.535156 74.4375-64.65625 133.894531-139.28125 133.894531-23.347656 0-46.4375-5.933594-66.78125-17.15625-3.304687-1.824218-7.457031-.621094-9.273437 2.679688-1.824219 3.300781-.625 7.453125 2.675781 9.277344 22.359375 12.332031 47.730469 18.851562 73.378906 18.851562 84.417969 0 153.097657-69.25 153.097657-154.371094 0-27.417968-7.199219-54.210937-20.824219-77.734375 1.679688-4.625 2.359375-9.554687 1.839844-14.425781zm-19.457032-9.34375c3.324219 2.546875 5.414063 6.375 5.882813 10.78125.542969 5.117188-1.160156 10.421875-4.679687 14.546875l-27.578126 32.359375c-4.824218 5.667969-12.710937 6.96875-17.945312 2.957031l-2.613281-2c-5.238281-4.003906-6.042969-11.957031-1.84375-18.09375l24.019531-35.085937c3.0625-4.472656 7.734375-7.507813 12.8125-8.320313.90625-.148437 1.804688-.214843 2.691406-.214843 3.402344 0 6.617188 1.054687 9.253906 3.070312zm-114.660156-39.21875c31.058594 0 61.125 10.46875 85.507813 29.585938-2.613281 2.078124-4.941407 4.5625-6.871094 7.386718l-24.019531 35.085938c-8.300782 12.132812-6.1875 28.230468 4.8125 36.652344l2.617187 2c4.507813 3.449218 9.871094 5.121093 15.289063 5.121093 7.800781 0 15.710937-3.464843 21.339844-10.066406l25.242187-29.621094c9.152344 17.867188 14.378906 37.546875 15.347656 57.753907h-86.320312c-3.917969-25.699219-26.167969-45.449219-52.941407-45.449219-26.773437 0-49.019531 19.75-52.9375 45.449219h-86.320312c.945312-19.730469 5.980469-39.035157 14.753906-56.570313l24.238282 28.441406c5.625 6.597657 13.539062 10.0625 21.335937 10.0625 5.417969 0 10.78125-1.671875 15.289063-5.121093l2.621093-2.003907c10.996094-8.417969 13.109375-24.511719 4.808594-36.648437l-24.019531-35.085938c-1.738282-2.542968-3.820313-4.78125-6.117188-6.722656 24.535156-19.546875 54.898438-30.25 86.34375-30.25zm-122.132812 50c.46875-4.40625 2.558594-8.234375 5.882812-10.777344 2.640625-2.019531 5.851563-3.074218 9.253906-3.074218.886719 0 1.785157.070312 2.691407.214843 5.082031.816407 9.75 3.847657 12.8125 8.320313l24.019531 35.089844c4.203125 6.136718 3.394531 14.085937-1.839844 18.089843l-2.613281 2c-5.246094 4.011719-13.125 2.707031-17.945313-2.953125l-27.582031-32.363281c-3.515625-4.125-5.222656-9.429687-4.679687-14.546875zm122.132812 131.898438c-22 0-39.894531-17.898438-39.894531-39.898438s17.894531-39.898438 39.894531-39.898438c22.003906 0 39.902344 17.898438 39.902344 39.898438s-17.898438 39.898438-39.902344 39.898438zm0 0"/></svg>